<?xml version="1.0" encoding="utf-8"?>
<!-- Generator: Adobe Illustrator 14.0.0, SVG Export Plug-In . SVG Version: 6.00 Build 43363)  -->
<!DOCTYPE svg PUBLIC "-//W3C//DTD SVG 1.1//EN" "http://www.w3.org/Graphics/SVG/1.1/DTD/svg11.dtd">
<svg version="1.1" id="Layer_1" xmlns="http://www.w3.org/2000/svg" xmlns:xlink="http://www.w3.org/1999/xlink" x="0px" y="0px"
	 width="485px" height="155px" viewBox="0 0 485 155" enable-background="new 0 0 485 155" xml:space="preserve">
<polyline fill="none" stroke="#000000" stroke-width="0.25" stroke-linejoin="round" stroke-miterlimit="10" points="
	213.421,53.855 214.254,54.392 215.087,57.779 215.92,57.161 216.753,57.375 217.613,57.832 218.447,58.182 219.28,58.37 
	220.113,58.665 220.946,58.585 221.779,58.773 222.613,58.8 223.445,58.8 224.279,58.988 225.112,58.719 225.945,57.725 
	226.778,56.462 227.611,56.032 228.445,56.274 229.277,56.408 230.111,56.973 230.944,57.402 231.777,58.316 232.61,57.994 
	233.443,56.73 234.277,66.54 235.11,56.408 235.943,56.381 236.776,56.784 237.609,57.429 238.442,58.719 239.275,59.069 
	240.109,58.988 240.942,59.257 241.775,59.337 242.608,59.31 243.441,59.633 244.273,59.687 245.107,59.687 245.941,59.794 
	246.773,60.332 247.607,60.197 248.439,59.929 249.273,59.929 250.107,60.278 250.939,59.982 251.773,59.929 252.605,58.532 
	253.438,58.585 254.271,58.585 255.105,58.908 255.938,59.203 256.771,59.122 257.604,59.552 258.438,60.09 259.271,60.225 
	260.938,60.278 261.771,60.386 262.604,61.676 263.437,61.541 264.27,61.837 265.103,61.891 265.936,61.783 266.77,62.025 
	267.604,62.132 268.436,62.294 269.27,62.536 270.104,62.643 270.936,62.294 271.77,62.186 272.602,61.945 273.436,62.213 
	274.268,62.267 275.102,62.536 275.934,62.24 276.768,62.16 277.6,62.643 278.434,62.294 279.268,62.482 280.1,62.375 
	280.934,64.417 281.768,62.912 282.6,63.127 283.434,63.315 284.266,62.536 285.1,62.697 285.932,63.342 286.766,63.906 
	287.6,63.772 288.432,63.96 289.264,64.068 290.098,64.31 290.932,64.39 291.764,64.39 292.598,64.417 293.432,64.363 
	294.264,64.498 295.098,64.712 295.93,64.014 296.764,65.116 297.598,65.277 298.43,65.599 299.289,65.546 300.122,65.331 
	300.956,65.035 301.789,65.465 302.622,65.599 303.456,65.922 304.289,65.546 305.122,65.277 305.954,65.922 306.788,65.68 
	307.622,65.708 308.454,65.841 309.288,65.949 310.121,65.708 310.954,65.814 311.787,65.708 312.621,65.304 313.454,65.304 
	314.287,65.035 315.12,64.901 315.954,64.041 316.787,65.25 317.62,65.116 318.452,64.498 319.286,64.471 320.119,64.659 
	320.952,64.282 321.785,64.041 322.619,63.906 323.453,64.229 324.285,64.229 325.119,64.31 325.951,63.665 326.785,64.148 
	327.617,65.143 328.451,65.143 329.285,64.847 330.117,64.444 330.951,64.793 331.785,64.793 332.617,64.632 333.451,63.53 
	334.283,64.31 335.117,64.793 335.949,64.767 336.783,64.712 337.615,64.605 338.449,64.256 339.281,63.691 340.115,64.095 
	340.949,63.799 341.781,62.589 342.615,62.589 343.449,61.622 344.281,60.816 345.117,61.864 345.947,60.117 346.783,60.601 
	347.613,60.681 348.449,60.251 349.279,60.063 350.115,62.16 350.945,60.197 351.781,61.031 352.611,60.977 353.447,60.869 
	354.277,60.493 355.113,57.859 355.943,60.574 356.779,61.891 357.609,62.052 358.446,61.434 359.275,61.676 360.111,60.869 
	360.942,60.332 361.777,62.186 362.608,63.611 363.443,63.638 364.274,64.39 365.11,63.772 365.941,64.632 366.776,63.315 
	367.607,62.751 368.442,63.262 369.273,63.826 370.108,63.45 370.939,64.229 371.775,62.616 372.606,62.885 373.441,63.181 
	374.272,63.181 375.107,63.745 375.938,63.53 376.773,63.208 377.605,63.262 378.44,65.116 379.271,64.982 380.106,65.197 
	380.965,65.035 381.797,65.143 382.633,64.793 383.465,64.874 384.299,64.928 385.131,64.74 385.965,64.686 386.797,66.003 
	387.631,66.433 388.463,66.459 389.297,66.325 390.129,66.11 390.963,66.299 391.795,67.105 392.629,68.529 394.297,68.798 
	395.127,68.959 395.963,69.093 396.794,69.282 397.629,69.416 398.46,69.228 399.295,69.066 400.126,69.093 400.961,69.174 
	401.792,69.093 402.627,68.852 403.459,68.878 404.293,68.583 405.125,68.341 405.959,68.664 406.796,68.825 407.626,68.852 
	408.457,68.852 409.292,68.932 410.127,69.254 410.958,69.631 411.794,69.819 412.624,69.792 413.46,70.169 414.291,70.223 
	415.126,70.571 415.957,70.545 416.792,70.491 417.623,70.491 418.459,70.437 419.289,70.464 420.125,70.303 420.956,70.437 
	421.791,70.356 422.622,70.545 423.457,70.276 424.288,70.571 425.124,70.545 425.955,70.384 426.79,70.625 427.621,70.142 
	428.456,70.518 429.287,71.109 430.123,71.029 430.953,70.679 431.789,70.787 432.621,70.625 433.455,71.19 435.121,71.405 
	435.953,71.566 436.788,71.271 437.619,71.271 438.455,71.513 439.286,71.808 440.121,71.781 440.952,71.835 441.787,71.888 
	442.618,71.432 443.453,71.808 444.284,68.771 445.12,69.228 445.951,68.744 446.786,71.862 447.617,71.351 448.452,68.449 
	449.283,68.878 450.119,70.088 450.949,69.658 451.785,69.578 452.616,69.308 453.451,69.201 454.282,69.739 455.117,69.927 
	455.948,70.249 456.784,70.384 457.615,70.276 458.45,70.384 459.281,70.518 460.116,70.356 460.947,70.384 461.782,70.518 
	462.641,70.437 53.427,20.771 53.427,125.186 462.639,125.186 53.427,36.09 54.26,38.831 55.093,37.729 55.926,38.213 56.76,37.46 
	57.593,37.084 58.426,39.369 59.259,39.395 60.093,41.062 60.925,40.363 61.759,41.572 62.591,40.954 63.425,41.411 64.258,43.023 
	65.091,40.874 65.924,42.782 66.758,43.454 67.591,44.636 68.424,45.442 69.257,45.845 70.09,47.19 70.923,48.749 71.756,49.232 
	72.59,50.979 73.423,52.188 74.256,52.86 75.089,55.736 75.922,56.488 76.756,57.08 77.589,58.262 78.422,58.854 79.255,58.988 
	80.088,59.176 80.922,59.526 81.754,59.149 82.588,59.069 83.421,56.757 84.254,56.596 85.087,56.757 85.92,56.327 86.753,55.145 
	87.586,54.93 88.42,55.091 89.253,54.446 90.086,54.742 53.427,38.293 54.26,41.035 55.093,39.933 55.926,40.417 56.76,39.665 
	57.593,39.261 58.426,41.572 59.259,41.572 60.093,43.239 60.925,42.54 61.759,43.723 62.591,43.131 63.425,43.562 64.258,45.12 
	65.091,42.997 65.924,44.905 66.758,45.523 67.591,46.679 68.424,47.485 69.257,47.861 70.09,49.151 70.923,50.685 71.756,51.141 
	72.59,52.86 73.423,54.043 74.256,54.688 75.089,57.51 75.922,58.236 76.756,58.827 77.589,59.956 78.422,60.521 79.255,60.681 
	80.088,60.869 80.922,61.192 81.754,60.842 82.588,60.789 83.421,58.532 84.254,58.343 85.087,58.504 85.92,58.102 86.753,56.973 
	87.586,56.757 88.42,56.919 89.253,56.274 90.086,56.569 90.919,56.677 92.585,56.677 93.419,56.757 94.252,56.973 95.085,57.456 
	95.918,58.585 96.751,58.773 97.584,58.128 98.418,57.967 99.25,58.773 100.084,59.23 100.917,58.719 101.75,57.026 102.583,56.784 
	103.417,56.354 104.25,56.327 105.083,56.515 105.916,56.596 106.749,56.381 107.583,57.188 108.416,57.779 109.249,57.645 
	110.082,57.564 110.916,57.698 111.748,60.09 112.581,60.439 113.415,60.842 114.248,60.493 115.081,60.251 115.914,59.875 
	116.748,59.929 117.58,59.767 118.414,59.767 119.247,60.144 120.913,60.144 121.746,59.929 122.58,59.526 123.413,59.337 
	124.246,59.284 125.08,59.445 125.912,59.982 126.746,60.251 127.579,60.225 128.412,59.58 129.245,59.526 130.078,59.526 
	130.912,59.042 131.744,59.391 132.578,59.848 133.411,59.902 134.244,59.445 135.077,57.886 135.937,57.349 136.77,57.026 
	137.603,57.08 138.436,56.3 139.27,55.199 140.103,54.366 140.936,56.542 141.769,54.77 142.602,55.064 143.435,54.958 
	144.269,54.58 145.101,54.366 145.935,53.398 146.768,53.075 147.601,51.92 148.434,50.361 149.268,51.086 150.101,49.501 
	150.934,52.807 151.767,53.022 152.6,54.285 153.434,53.505 154.267,54.043 155.1,55.279 155.933,54.016 156.767,54.77 
	157.599,54.231 158.433,53.21 159.266,52.296 160.099,52.592 160.932,53.371 161.765,52.484 162.599,50.925 163.431,50.792 
	164.265,46.544 165.098,47.189 165.931,47.271 166.764,48.292 167.597,49.904 168.431,49.501 169.264,48.937 170.097,48.104 
	170.93,48.05 171.763,47.109 172.596,46.115 173.43,49.34 174.263,50.818 175.096,70.679 179.261,53.479 180.095,52.001 
	180.928,54.688 182.594,56.247 183.427,55.44 184.261,55.602 185.094,56.06 185.927,57.026 186.76,56.704 187.593,57.026 
	188.426,56.812 189.259,56.381 190.093,56.488 190.926,56.3 191.759,56.274 192.592,56.408 193.426,57.833 194.258,58.612 
	195.091,56.515 195.925,57.806 196.758,56.73 197.591,57 198.424,56.327 199.257,57.483 200.09,59.337 200.924,57.322 
	201.757,57.08 202.59,56.247 203.423,57.51 204.256,57.322 205.09,53.64 205.923,53.855 206.756,54.58 207.589,53.425 
	208.422,54.822 209.255,55.387 210.089,56.3 210.922,56.677 211.755,57.483 212.588,57.886 213.421,56.757 214.254,57.402 
	215.088,60.628 215.92,59.633 216.754,59.875 217.614,60.439 218.447,60.816 220.113,61.46 220.946,61.299 221.779,61.46 
	222.613,61.515 223.446,61.487 224.279,61.676 225.112,61.515 225.945,60.708 226.779,59.096 227.612,58.746 228.445,59.069 
	229.278,59.203 230.111,60.09 230.944,60.521 231.778,61.487 232.611,61.166 233.444,59.688 234.277,68.986 235.11,58.961 
	235.943,58.936 236.777,59.311 237.609,59.982 238.443,61.273 239.276,61.622 240.109,61.487 240.942,61.676 241.775,61.837 
	242.609,61.811 243.441,62.509 244.275,62.616 245.107,62.938 245.941,62.563 246.773,63.1 247.605,63.046 248.439,63.127 
	249.271,62.966 250.105,63.02 250.939,62.67 251.773,62.697 252.605,61.515 253.439,61.891 254.271,61.864 255.105,61.676 
	255.938,61.703 256.771,61.864 257.604,62.536 258.438,62.885 259.271,63.1 260.104,63.127 260.938,63.127 261.771,63.154 
	262.604,64.444 263.438,64.524 264.27,64.687 265.104,64.687 265.938,64.82 266.77,64.687 267.604,64.928 268.438,65.062 
	269.27,65.412 270.104,65.492 270.936,64.901 271.77,64.847 272.602,64.282 273.436,64.551 274.268,64.712 275.102,65.035 
	275.936,65.089 276.768,64.955 277.602,65.169 278.434,64.901 279.268,65.089 280.1,65.035 280.934,66.89 281.768,65.331 
	282.6,65.573 283.434,65.922 284.266,65.385 285.1,65.52 285.932,66.056 286.766,66.541 287.6,66.433 288.432,66.567 
	289.266,66.621 290.098,66.81 290.932,66.782 291.764,66.782 292.598,66.755 293.432,66.729 294.266,66.97 295.098,67.266 
	295.932,67.024 296.764,67.75 297.598,67.83 298.43,68.126 299.29,68.019 300.122,67.857 300.956,67.481 301.789,67.696 
	302.622,67.965 303.456,68.341 304.289,68.099 305.122,67.992 305.956,68.368 306.788,68.234 307.622,68.26 308.454,68.396 
	309.288,68.475 310.122,68.234 310.954,68.26 311.788,68.099 312.621,67.776 313.454,67.804 314.287,67.535 315.12,67.32 
	315.954,66.702 316.787,67.535 317.62,67.508 318.454,66.997 319.286,66.89 320.119,67.078 320.952,66.755 321.786,66.541 
	322.619,66.675 323.452,66.997 324.285,66.943 325.119,66.917 325.951,66.621 326.785,67.266 327.617,67.857 328.451,67.965 
	329.284,67.696 330.117,67.239 330.951,67.535 331.784,67.481 332.616,67.212 333.45,66.836 334.283,67.4 335.116,67.644 
	335.949,67.615 336.783,67.669 337.616,67.696 338.449,67.535 339.282,66.943 340.115,67.158 340.949,66.836 341.782,65.626 
	342.615,65.465 343.448,64.471 344.281,63.691 345.116,64.767 345.945,62.993 346.782,63.477 347.613,63.666 348.448,63.262 
	349.279,63.154 350.114,65.331 350.945,63.262 351.781,64.095 352.611,63.987 353.447,63.854 354.277,63.503 355.113,61.246 
	355.943,63.745 356.779,64.847 357.609,65.008 358.445,64.524 359.275,64.605 360.111,63.906 360.941,63.53 361.777,65.331 
	362.607,66.755 363.443,66.729 364.273,67.374 365.109,66.863 365.941,67.75 366.775,66.379 367.607,66.083 368.441,66.379 
	369.273,66.836 370.107,66.541 370.939,67.266 371.775,65.546 372.605,65.708 373.441,66.003 374.271,65.977 375.107,66.567 
	375.938,66.943 376.773,66.433 377.605,66.836 378.439,68.421 379.271,68.153 380.105,68.396 380.966,68.206 381.798,68.072 
	382.633,67.644 383.465,67.857 384.299,67.884 385.131,67.857 385.965,67.776 386.797,69.013 387.632,69.417 388.467,69.362 
	389.298,69.201 390.13,69.013 390.964,69.308 391.796,70.088 392.63,71.324 393.466,71.486 394.297,71.566 395.132,71.808 
	395.963,72.023 396.798,72.104 397.629,72.372 398.465,72.185 399.295,72.05 400.131,72.05 400.962,72.319 401.797,72.265 
	402.628,72.104 403.463,72.345 404.294,72.372 405.13,72.265 405.96,72.077 406.796,72.077 407.627,72.185 408.462,72.453 
	409.293,72.399 410.128,72.561 410.959,72.75 411.795,72.83 412.625,72.83 413.461,73.125 414.292,73.367 415.127,73.904 
	415.958,73.662 416.793,73.555 417.624,73.716 418.46,73.662 419.29,73.555 420.126,73.367 420.957,73.394 421.792,73.447 
	422.623,73.636 423.458,73.394 424.289,73.609 425.125,73.501 425.956,73.474 426.791,73.852 427.622,73.609 428.457,73.743 
	429.288,74.146 430.124,74.065 430.954,73.797 431.79,73.904 432.622,73.824 433.456,74.254 435.122,74.576 435.954,74.685 
	436.789,74.576 437.62,74.496 438.456,74.63 439.287,74.899 440.122,74.899 440.953,75.033 441.788,75.033 442.619,74.63 
	443.454,75.114 444.285,71.996 445.121,72.265 445.952,71.808 446.787,74.818 447.618,77.452 448.453,74.361 449.284,74.146 
	450.12,75.437 450.95,75.249 451.786,76.054 452.617,74.604 453.452,75.894 454.283,76.296 455.118,76.941 455.949,77.129 
	456.785,76.538 457.619,77.532 458.451,76.78 459.282,75.437 460.117,77.667 460.948,76.646 461.783,76.727 462.643,76.054 
	462.643,66.137 461.783,66.217 460.948,66.083 460.117,66.03 459.282,66.191 458.451,66.03 457.619,65.922 456.785,66.003 
	455.949,65.869 455.118,65.546 454.283,65.385 453.452,64.847 452.617,64.982 451.786,65.25 450.95,65.358 450.12,65.76 
	449.284,64.578 448.453,64.148 447.618,67.078 446.787,67.804 445.952,64.551 445.121,65.008 444.285,64.417 443.454,67.454 
	442.619,67.078 441.788,67.562 440.122,67.454 439.287,67.481 438.456,67.186 437.62,66.917 436.789,66.917 435.954,67.212 
	435.122,67.024 434.288,66.943 433.456,66.836 432.622,66.191 431.79,66.353 430.954,66.245 430.124,66.594 429.288,66.675 
	428.457,66.083 427.622,65.68 426.791,66.164 425.956,65.949 425.125,66.137 424.289,66.137 423.458,65.814 422.623,66.083 
	421.792,65.922 420.957,66.03 420.126,65.869 419.29,66.056 418.46,66.003 417.624,66.03 416.793,66.056 415.958,66.083 
	415.127,66.11 414.292,65.788 413.461,65.734 412.625,65.358 411.795,65.358 410.959,65.116 410.128,64.74 409.293,64.444 
	408.462,64.336 407.627,64.363 406.796,64.311 405.96,64.121 405.13,63.745 404.294,64.014 403.463,64.336 402.628,64.311 
	401.797,64.578 400.962,64.659 400.131,64.578 399.295,64.551 398.465,64.712 397.629,64.928 396.798,64.793 395.963,64.605 
	394.297,64.336 393.466,64.175 392.63,64.042 391.796,62.536 390.964,61.676 390.13,61.515 389.298,61.703 388.467,61.864 
	387.632,61.649 386.797,61.407 385.965,59.982 385.131,60.063 384.299,60.251 383.465,60.197 382.633,60.117 381.798,60.628 
	380.966,60.897 380.105,61.058 379.271,60.789 378.439,61.004 377.605,59.122 376.773,58.666 375.938,59.472 375.107,59.042 
	374.271,58.451 373.441,58.451 372.605,58.102 371.775,57.833 370.939,59.526 370.107,58.693 369.273,59.096 367.607,57.913 
	366.775,58.532 365.941,59.956 365.109,59.015 364.273,59.66 363.443,58.854 362.607,58.881 361.777,57.375 360.941,55.414 
	360.111,56.032 359.275,56.892 358.445,56.65 357.609,57.295 356.779,57.106 355.943,55.736 355.113,52.914 354.277,55.709 
	353.447,56.06 352.611,56.193 351.781,56.247 350.945,55.414 350.114,57.456 349.279,55.306 348.448,55.521 347.613,55.979 
	346.782,55.897 345.945,55.387 345.116,57.214 344.281,56.113 343.448,56.973 342.615,57.994 341.782,57.994 340.949,59.203 
	340.115,59.526 339.282,59.069 338.449,59.633 337.616,60.036 336.783,60.197 335.949,60.251 335.116,60.305 334.283,59.794 
	333.45,59.015 332.616,60.171 331.784,60.333 330.951,60.333 330.117,60.01 329.284,60.413 328.451,60.708 327.617,60.681 
	326.785,59.741 325.951,59.176 325.119,59.875 324.285,59.767 323.452,59.794 322.619,59.445 321.786,59.58 320.952,59.848 
	320.119,60.225 319.286,60.036 318.454,60.063 317.62,60.708 316.787,60.816 315.954,59.58 315.12,60.467 314.287,60.574 
	313.454,60.869 312.621,60.869 311.788,61.273 310.954,61.354 310.122,61.273 309.288,61.487 308.454,61.407 307.622,61.246 
	306.788,61.246 305.956,61.515 305.122,60.816 304.289,61.111 303.456,61.515 302.622,61.166 301.789,61.031 300.956,60.574 
	300.122,60.897 299.29,61.111 298.43,61.138 297.598,60.842 296.764,60.654 295.932,59.472 295.098,60.251 294.266,60.036 
	293.432,59.902 292.598,59.956 291.764,59.929 290.932,59.929 290.098,59.848 289.266,59.58 288.432,59.472 287.6,59.284 
	286.766,59.472 285.932,58.854 285.1,58.182 284.268,57.994 283.434,58.827 282.6,58.666 281.768,58.423 280.934,59.929 
	280.1,57.859 279.268,57.967 278.434,57.779 277.602,58.155 276.768,57.617 275.936,57.725 275.102,58.021 274.27,57.752 
	273.436,57.698 272.602,57.429 271.77,57.645 270.936,57.779 270.104,58.128 269.27,58.021 268.438,57.779 267.604,57.617 
	266.77,57.51 265.938,57.241 265.104,57.375 264.27,57.322 263.438,57 262.604,57.161 261.771,55.897 260.938,55.763 
	260.104,55.709 259.271,55.709 258.438,55.575 257.604,55.038 256.771,54.607 255.938,54.661 255.105,54.366 254.271,53.989 
	253.439,53.936 252.605,54.016 251.773,55.387 250.939,55.44 250.105,55.736 249.271,55.36 248.439,55.36 247.605,55.629 
	246.773,55.791 245.941,55.227 245.107,55.091 244.275,55.118 243.441,55.064 242.609,54.742 241.775,54.77 240.942,54.688 
	240.109,54.392 239.276,54.473 238.443,54.125 237.609,52.86 236.777,52.162 235.943,51.731 235.11,51.785 234.277,62.616 
	233.444,52.162 232.611,53.425 231.778,53.747 230.944,52.78 230.111,52.323 229.278,51.758 228.445,51.625 227.612,51.382 
	226.779,51.812 225.945,53.049 225.112,54.097 224.279,54.392 223.446,54.178 221.779,54.178 220.946,53.962 220.113,54.07 
	219.28,53.747 218.447,53.56 217.614,53.21 216.754,52.753 215.92,52.538 215.088,53.129 214.254,49.689 213.421,49.178 
	212.588,50.065 211.755,49.583 210.922,48.372 210.089,48.587 208.422,47.352 207.589,46.115 206.756,46.948 205.923,46.115 
	205.09,46.464 204.256,49.985 203.423,50.173 202.59,49.367 201.757,50.119 200.924,50.388 200.09,52.001 199.257,50.549 
	198.424,49.716 197.591,50.441 196.758,50.199 195.925,51.167 195.091,49.877 194.258,51.651 193.426,50.441 192.592,49.501 
	191.759,49.528 190.926,49.583 190.093,49.824 189.259,49.716 188.426,50.199 187.593,50.361 186.76,50.012 185.927,50.334 
	185.094,49.583 184.261,49.098 183.427,48.937 182.594,49.77 181.761,48.963 180.928,47.942 180.095,44.609 179.261,46.84 
	178.429,50.63 177.595,54.446 176.762,58.236 175.929,62.052 175.096,65.841 174.263,43.938 173.43,42.486 172.596,39.208 
	171.763,40.551 170.93,41.277 170.097,41.357 169.264,42.325 168.431,42.835 167.597,43.48 166.764,41.384 165.931,40.336 
	165.098,40.255 164.265,39.101 163.432,43.48 162.599,44.18 161.765,45.845 160.932,46.948 160.099,46.168 159.266,45.899 
	158.433,46.867 157.599,47.861 156.767,48.399 155.933,47.647 155.1,48.721 154.267,47.404 153.434,46.813 152.6,47.62 
	151.767,46.41 150.934,46.115 150.101,42.917 149.268,44.556 148.434,43.857 147.601,45.281 146.768,46.383 145.935,46.706 
	145.101,47.62 144.269,47.834 143.435,48.211 142.602,48.318 141.769,48.05 140.936,49.528 140.103,47.432 139.27,48.453 
	138.436,49.367 137.603,49.985 136.77,49.931 135.937,50.199 135.077,50.792 134.244,52.404 133.411,52.914 132.578,52.727 
	131.744,52.376 130.912,52.001 130.078,52.484 129.245,52.592 128.412,52.672 127.579,53.236 126.746,53.049 125.912,52.672 
	124.246,52.35 123.413,52.296 122.58,52.484 121.746,52.914 120.913,53.103 120.08,53.103 119.247,53.075 118.414,52.727 
	117.581,52.727 116.748,52.941 115.914,52.968 115.081,53.344 114.248,53.532 113.415,53.936 112.581,53.64 111.748,53.263 
	110.916,50.737 110.082,50.63 109.249,50.63 108.416,50.71 107.583,50.173 106.749,49.206 105.916,49.662 105.083,49.716 
	104.25,49.474 103.417,49.474 102.583,49.877 101.75,50.173 100.917,52.001 100.084,52.484 99.25,52.054 98.418,51.221 
	97.584,51.382 96.751,52.027 95.918,51.866 95.085,50.549 94.252,50.038 93.419,49.85 92.585,49.796 90.919,49.796 90.086,49.743 
	89.253,49.42 88.42,50.119 87.586,49.931 86.753,50.173 85.92,51.409 85.087,51.866 84.254,51.678 83.421,51.866 82.588,54.285 
	81.754,54.366 80.922,54.742 80.088,54.366 78.422,54.043 77.589,53.425 76.756,52.215 75.922,51.57 75.089,50.818 74.256,47.834 
	73.423,47.163 72.59,45.926 71.756,44.125 70.923,43.588 70.09,41.976 69.257,40.578 68.424,40.121 67.591,39.288 66.758,38.079 
	65.924,37.379 65.091,35.418 64.258,37.622 63.425,35.929 62.591,35.472 61.759,36.09 60.925,34.854 60.093,35.552 59.259,33.833 
	58.426,33.859 57.593,31.521 56.76,31.924 55.926,32.649 55.093,32.167 54.26,33.295 53.427,30.553 93.419,54.849 94.252,55.01 
	95.085,55.548 95.918,56.757 96.751,56.919 97.584,56.3 98.417,56.139 99.25,56.946 100.084,57.375 100.917,56.892 101.75,55.145 
	102.583,54.876 103.417,54.446 104.25,54.446 105.083,54.661 105.916,54.607 106.749,54.15 107.583,55.091 108.416,55.656 
	109.249,55.548 110.082,55.548 110.915,55.682 111.748,58.101 112.581,58.451 113.415,58.773 114.248,58.37 115.081,58.182 
	115.914,57.832 116.748,57.806 117.58,57.591 118.414,57.591 119.247,57.94 120.913,57.94 121.746,57.779 122.58,57.349 
	123.413,57.161 124.246,57.214 125.079,57.375 125.912,57.51 126.746,57.886 127.579,58.074 128.412,57.537 129.245,57.456 
	130.078,57.349 130.912,56.892 131.744,57.268 132.578,57.591 133.411,57.779 134.244,57.295 135.077,55.763 135.937,55.171 
	136.77,54.93 137.603,54.984 138.436,54.285 139.27,53.29 140.103,52.162 140.936,54.419 141.769,52.833 142.602,53.156 
	143.435,53.022 144.268,52.646 145.101,52.457 145.935,51.517 146.768,51.194 147.601,50.092 148.434,48.587 149.268,49.286 
	150.101,47.566 150.934,50.872 151.767,51.141 152.6,52.404 153.434,51.597 154.267,52.188 155.1,53.452 155.933,52.323 
	156.766,53.075 157.599,52.538 158.433,51.543 159.266,50.576 160.099,50.845 160.932,51.624 161.765,50.495 162.599,48.882 
	163.431,48.318 164.265,43.964 165.098,45.013 165.931,45.093 166.764,46.087 167.597,48.05 169.264,46.975 170.097,46.06 
	170.93,46.007 171.763,45.281 172.596,44.018 173.429,47.19 174.263,48.749 175.096,69.282 175.929,48.829 176.762,63.315 
	177.595,50.308 178.428,51.49 179.261,51.543 180.095,49.501 180.928,52.672 181.761,53.613 182.594,54.419 183.427,53.586 
	184.261,53.747 185.094,54.258 185.927,55.01 186.76,54.769 187.593,55.091 188.426,54.903 189.259,54.419 190.093,54.553 
	190.926,54.312 192.592,54.258 193.425,55.279 194.258,56.381 195.09,54.58 195.925,55.817 196.757,54.849 197.59,55.091 
	198.423,54.366 199.256,55.252 200.089,56.73 200.922,55.038 201.756,54.795 202.589,53.989 203.422,54.849 204.255,54.661 
	205.088,51.221 205.922,50.845 206.755,51.705 207.588,50.845 208.421,52.081 209.254,52.672 210.087,53.317 210.921,53.075 
	211.754,54.285 212.587,54.795 213.42,53.855 "/>
</svg>
