<?xml version="1.0" encoding="utf-8"?>
<!-- Generator: Adobe Illustrator 14.0.0, SVG Export Plug-In . SVG Version: 6.00 Build 43363)  -->
<!DOCTYPE svg PUBLIC "-//W3C//DTD SVG 1.1//EN" "http://www.w3.org/Graphics/SVG/1.1/DTD/svg11.dtd">
<svg version="1.1" id="Layer_1" xmlns="http://www.w3.org/2000/svg" xmlns:xlink="http://www.w3.org/1999/xlink" x="0px" y="0px"
	 width="609.449px" height="425px" viewBox="0 0 609.449 425" enable-background="new 0 0 609.449 425" xml:space="preserve">
<path fill-rule="evenodd" clip-rule="evenodd" fill="none" stroke="#000000" d="M99.747,169.12c1.65,0,3.301,0,4.951,0
	c4.654,0,9.308,0,13.961,0c7.211,0,14.422,0,21.633,0c9.322,0,18.644,0,27.965,0c10.986,0,21.973,0,32.959,0
	c12.205,0,24.409,0,36.614,0c12.977,0,25.954,0,38.93,0c13.302,0,26.605,0,39.908,0c13.182,0,26.363,0,39.545,0
	c12.615,0,25.23,0,37.846,0c11.603,0,23.205,0,34.807,0c10.144,0,20.286,0,30.429,0c8.237,0,16.475,0,24.712,0
	c5.886,0,11.771,0,17.656,0c3.088,0,6.176,0,9.263,0c0.087,0,1.073,0.034,1.073-0.027c0.002-1.543,0.005-3.085,0.007-4.628
	c0.014-9.095,0.027-18.189,0.041-27.284c0.02-12.942,0.039-25.885,0.059-38.828c0.018-11.793,0.035-23.586,0.053-35.379
	c0.009-5.647,0.017-11.293,0.025-16.94c0-0.036,0-0.073,0-0.109c-0.002,2.2-0.004,4.4-0.005,6.601
	c-0.005,6.055-0.01,12.109-0.015,18.164c-0.007,9.09-0.015,18.179-0.021,27.269c-0.009,11.306-0.018,22.611-0.026,33.917
	c-0.011,12.702-0.021,25.405-0.03,38.107c-0.011,13.28-0.021,26.56-0.032,39.839c-0.01,13.038-0.021,26.077-0.03,39.115
	c-0.01,11.977-0.02,23.954-0.028,35.932c-0.008,10.097-0.017,20.194-0.024,30.292c-0.006,7.397-0.012,14.796-0.018,22.193
	c-0.003,3.88-0.006,7.76-0.009,11.639c0,0.384-0.001,0.767-0.001,1.15c-0.186-6.154-0.372-12.309-0.558-18.464
	c-0.383-12.681-0.767-25.362-1.149-38.043c-0.318-10.535-0.637-21.069-0.954-31.604c-0.054-1.749-0.106-3.498-0.159-5.247
	c-0.015-0.479-0.704-1.377-0.905-1.843c-0.4-0.924-0.758-1.873-1.24-2.759c-0.702-1.29-2.649-2.931-3.803-1.061
	c-0.48,0.779-0.614,1.724-1.009,2.544c-0.102,0.211-0.218,0.415-0.358,0.604c-0.192,0.259-0.09,0.353-0.149,0.653
	c-0.084,0.42-0.232,0.018-0.227,0.609c0.001,0.052,0.048,0.562-0.026,0.629c-0.227,0.208-0.454,0.415-0.681,0.623
	c0.033-0.03,0.199,0.544,0.132,0.704c-0.194,0.464-1.031,1.245,0.076,1.245c-0.48-0.16-0.96-0.32-1.44-0.48
	c0.392-0.478-1.013-1.518-0.96-2.159c-0.702,0-0.989-0.146-0.972-0.906c0.014-0.647-1.002-1.68-1.336-2.305
	c-0.48-0.898-0.637-1.882-1.473-2.56c-0.618-0.5-1.464-0.76-2.245-0.531c-0.807,0.235-1.312,0.948-1.517,1.734
	c-0.106,0.411,0.029,1.119-0.144,1.464c-0.155,0.31-0.31,0.619-0.465,0.929c-0.291,0.583-0.724,1.142-0.671,1.784
	c0.072,0.9-0.243,2.487-1.256,2.79c-0.426-1.249-0.945-2.464-1.335-3.725c-0.158-0.512-0.817-0.525-1.301-0.795
	c-0.458-0.254-0.91-0.483-1.443-0.519c0.133,0.501-0.274,0.446-0.443,0.79c-0.275,0.559-0.387,1.317-0.532,1.924
	c-0.351,1.465-0.584,2.955-0.804,4.444c-0.429,2.908-0.744,5.918-1.82,8.676c-0.097-0.25-0.258-0.468-0.368-0.711
	c-0.188-0.415-0.062-0.824-0.243-1.221c-0.456-0.997-0.323-2.112-0.683-3.113c-0.312-0.87-0.98-4.631-2.471-3.909
	c-2.755,1.333-2.184,5.691-3.247,8.095c-0.344,0.776-0.527,1.766-0.737,2.604c-0.229,0.917-0.636,1.787-1.229,2.526
	c-0.562,0.699-1.271,1.263-2.049,1.706c-0.937,0.534-1.668,1.512-2.441,2.276c-0.416,0.411-0.826,0.829-1.206,1.273
	c-0.153,0.179-0.301,0.362-0.442,0.55c0.038,0.251,0.016,0.497-0.097,0.726c-0.229,0.463-0.378,0.711-0.795,0.977
	c-0.515,0.327-1.029,0.654-1.543,0.981c-0.027,0.018-1.151,0.827-0.444,0.675c-0.062,0.427-0.823,0.982-1.123,1.229
	c-0.506,0.416-0.823,1.01-1.091,1.596c-0.279,0.61-0.514,1.247-0.868,1.819c-0.252,0.407-0.32,0.452,0.032,0.854
	c0.25,0.284,0.65,0.354,0.65,0.741c0.844-0.062,0.021,0.472,0.239,0.96c0.008,0.185-0.032,0.358-0.118,0.521
	c-0.054,0.103-0.361,0.308-0.361,0.24c0,0.282,0,0.564,0,0.848c0,0.29,0.086,0.311-0.24,0.311c-0.287,0.266-0.471,0.619-0.628,0.972
	c-0.31,0.688-0.558,1.548-1.291,1.907c0.016-0.176-0.064-0.256-0.24-0.24c-0.411,0-0.24,0.3-0.24,0.641
	c0,0.479,0.115,0.921-0.177,1.343c-0.609,0.88-0.589,1.665-0.698,2.733c-0.062,0.593-0.138,1.198-0.343,1.762
	c-0.226,0.622-0.2,1.164-0.28,1.828c-0.142,1.169-0.459,2.341-0.729,3.485c-0.529,2.242-0.465,4.697-1.435,6.819
	c-0.079,0.174-0.595,1.281-0.808,0.974c-0.119-0.172-0.063-0.438-0.089-0.631c-0.143-0.282-0.294-0.56-0.44-0.839
	c-0.304-0.578-0.585-1.17-0.76-1.801c-0.454-0.065-0.506-0.653-0.96-0.72c0.063,1.139-2.146,1.033-1.839,2.07
	c0.245,0.83-0.139,1.789-0.642,2.515c-0.305,0.44-0.272,1.102-0.373,1.631c-0.125,0.657-0.287,1.309-0.506,1.941
	c0.023,1.022,0.076,2.176-0.359,3.13c-0.455,0.996-0.136,2.286-0.601,3.349c0.022,0.442,0.062,0.975-0.164,1.377
	c-0.339,0.605-0.648-0.053-0.793-0.433c-0.347-0.907-0.311-1.921-0.467-2.867c-0.184-1.11-0.421-2.198-0.571-3.326
	c-0.047-0.349-0.012-0.908-0.164-1.229c-0.571-0.202-0.732-1.327-0.926-1.869c-0.203-0.567-0.528-1.055-1.182-1.098
	c-1.129-0.074-1.489,1.189-1.802,2.097c-0.369,1.072-0.599,2.187-0.902,3.277c-0.195,0.704-0.397,2.355-1.188,2.632
	c-0.542-2.556-0.918-5.056-1.325-7.62c-0.083-0.524-0.385-0.919-0.496-1.436c-0.124-0.574-0.098-1.158-0.098-1.741
	c0-1.126-0.221-2.243-0.648-3.285c-1.46-3.561-5.248-5.419-6.75-8.952c-0.195-0.459-0.35-0.935-0.464-1.42
	c-0.101-0.427-0.518-0.776-0.739-1.175c-0.226-0.405-0.426-0.834-0.73-1.188c-0.25-0.29-0.584-0.391-0.855-0.632
	c-0.512-0.454-1.022-0.908-1.534-1.362c-0.168-0.149-0.336-0.298-0.504-0.447c0.015,0.013-0.059-0.553-0.064-0.577
	c-0.07-0.313-0.217-0.599-0.341-0.893c-0.194-0.456-0.411-0.906-0.513-1.396c-0.061-0.29-0.084-0.587-0.076-0.883
	c0.014-0.49-0.077-0.326-0.351-0.667c-0.352-0.438-0.456-1.035-0.517-1.578c-0.084-0.747-0.146-1.31-0.375-2.023
	c-0.193-0.601-0.316-1.222-0.375-1.85c-0.059-0.631-0.238-1.051-0.415-1.646c-0.182-0.609-0.133-1.188-0.326-1.794
	c-0.237-0.746-0.354-1.524-0.509-2.29c-0.597-2.935-1.69-5.76-2.608-8.603c-0.446-1.384-0.934-2.711-1.437-4.072
	c-0.202-0.544-1.06-4.137-1.384-4.156c-0.352-0.021-0.802,0.172-1.135,0.016c-0.351-0.165-0.146-1.419-0.146-1.748
	c0-0.76,0-1.52,0-2.279c0-0.333,0-0.666,0-0.999c0-0.493-0.366-0.071-0.483-0.477c-0.352-1.216-0.776-2.575-0.956-3.843
	c-0.643-1.374-1.062-2.843-1.47-4.3c-0.571-2.04-1.159-4.421-2.244-6.269c-0.924-1.574-2.89-1.622-3.908-0.127
	c-0.442,0.649-0.779,1.388-1.372,1.922c-0.715,0.646-1.692,0.766-2.476,1.229c-1.965,1.162-4.231-0.684-4.772-2.503
	c-0.196-0.661-0.348-1.399-0.794-1.947c-0.08,0.399-0.16,0.8-0.24,1.199c0.73,0.057-0.584-4.926-0.685-5.345
	c-0.446-1.854-0.837-3.732-1.476-5.534c-0.482-1.359-1.02-2.218-2.134-3.145c-0.455-0.38-0.916-0.764-1.276-1.238
	c-0.421-0.553-0.484-1.218-0.833-1.779c-0.449-0.724-0.716-1.549-0.921-2.37c-0.186-0.747-0.179-1.947-0.509-2.508
	c-0.264-0.447-0.354-1.01-0.381-1.538c-0.029-0.591-0.313-1.127-0.46-1.699c-0.287-1.122-0.555-2.612-1.884-2.914
	c0.303-0.605,0.626-1.029,0.385-1.723c-0.403-1.158-0.997-2.232-1.639-3.273c-1.261-2.044-2.573-4.028-3.012-6.436
	c-0.1-0.548-0.466-1.011-0.61-1.566c-0.161-0.617-0.3-1.096-0.548-1.684c-0.241-0.572-0.407-1.174-0.52-1.783
	c-0.048-0.258,0.038-0.521-0.034-0.762c-0.06-0.203-0.24-0.336-0.269-0.554c-0.052-0.397-0.326-0.571-0.461-0.944
	c-0.175-0.484,0.17-0.951-0.185-1.351c-0.346-0.39-0.475-0.931-0.591-1.424c-0.163-0.695-0.437-1.179-0.786-1.797
	c-5.041-8.893-5.104-19.631-7.225-29.388c-0.31-1.423-0.618-2.847-0.928-4.27c-0.114-0.526-0.229-1.052-0.345-1.578
	c-0.142-0.647-0.277-1.296-0.373-1.953c-0.051-0.347-0.09-0.696-0.116-1.046c-0.032-0.425-0.224-0.743-0.305-1.162
	c-1.158-5.977-1.678-12.084-2.635-18.084c-0.223-1.397-0.326-2.805-0.599-4.187c-0.124-0.632-0.096-1.289-0.087-1.929
	c0.012-0.779-0.311-1.444-0.396-2.226c-0.131-1.206-0.453-2.514-0.32-3.727c-0.321-0.508-0.349-1.173-0.406-1.754
	c-0.084-0.848-0.23-1.69-0.361-2.532c-0.486-3.126-1.113-6.185-1.963-9.234c-0.382-1.372-0.872-2.691-1.334-4.036
	c-0.216-0.631-0.332-1.329-0.657-1.908c-0.381-0.681-0.63-1.428-0.848-2.174c-0.373-1.277-1.116-2.449-1.717-3.637
	c-0.652-1.29-1.299-2.583-1.972-3.864c-1.265-2.406-2.621-4.781-4.284-6.938c-0.777-1.008-1.622-1.965-2.547-2.84
	c-0.816-0.773-2.897-1.383-3.698-0.231c-0.296,0.427-0.843,0.529-1.329,0.521c-0.353-0.425-0.642-0.898-0.897-1.385
	c-0.579-1.103-0.992-2.282-1.558-3.391c-0.4-0.785-1.158-2.417-2.196-2.082c-1.223,0.395-1.805,1.504-2.343,2.559
	c-0.294,0.575-0.603,1.148-0.995,1.663c-0.403,0.528-0.742,0.569-1.294,0.162c-0.932-0.688-1.287-1.483-2.638-1.071
	c-1.229,0.375-1.264,1.556-1.688,2.605c-0.274,0.679-0.545,1.209-0.658,1.938c-0.133,0.856-0.298,1.706-0.488,2.55
	c-0.312,1.388-0.692,2.76-1.082,4.128c-0.117,1.09-0.4,2.156-0.865,3.15c-0.771,1.651-2.008,2.99-3.102,4.426
	c-1.223,1.605-2.109,3.367-2.399,5.383c-0.08,0.555-0.105,1.104-0.217,1.652c-0.107,0.533-0.356,0.751-0.388,1.301
	c-0.028,0.5-0.082,1.135-0.503,1.477c-0.412,0.335-0.154,1.362-0.323,1.926c-0.068,0.225-0.179,0.444-0.361,0.599
	c-0.036,0.255-0.091,0.518-0.212,0.748c-0.39,0.736-0.884,0.244-1.366-0.129c-0.542-0.419-0.913-0.751-1.635-0.67
	c-0.465,0.052-0.832,0.302-1.109,0.669c-1.483,1.958-1.44,4.615-2.396,6.82c-0.062,0.586-0.189,1.176-0.451,1.708
	c-0.263,0.535-0.206,0.996-0.396,1.558c-0.073,0.215-0.187,0.417-0.353,0.573c0.013,0.202,0.007,0.414-0.059,0.607
	c-0.124,0.365-0.459,0.507-0.82,0.531c-0.852,0.058-1.697-0.232-2.55-0.236c-1.079-0.006-2.139,0.491-2.871,1.272
	c-0.696,0.743-1.135,1.686-1.584,2.586c-0.592,1.185-1.359,2.665-1.505,3.982c-0.172,1.556-0.716,3.108-1.098,4.624
	c-0.441,1.75-0.789,3.524-1.311,5.252c-0.46,1.527-1.336,2.86-1.813,4.343c-0.252,0.784-0.655,1.502-1.098,2.192
	c-0.214,0.334-0.436,0.663-0.649,0.997c-0.092,0.473-0.219,0.938-0.363,1.396c-0.245,0.779-0.534,1.543-0.748,2.332
	c-0.203,0.749-0.078,1.436-0.466,2.157c-0.195,0.362-0.343,0.525-0.343,0.953c0,0.292,0.119,0.667-0.042,0.935
	c-0.201,0.335-0.198,0.572-0.198,0.959c0,1.488,0,2.976,0,4.464c-0.59-0.143-0.609,0.622-1.2,0.479
	c-0.014,0.797-0.052,1.699-0.48,2.399c-0.221,0.844-0.304,1.719-0.546,2.558c-0.146,0.509-0.515,1.416-0.942,1.712
	c-0.48,0.333-0.066,1.169-1.151,1.008c0.453,0.343-0.309,1.47-0.72,0.959c0.042,0.388,0.009,0.905-0.477,0.962
	c-0.377,0.044-0.544,0.761-0.823,1.117c-0.55,0.703-0.822,1.444-1.215,2.23c-0.154,0.308-0.395,0.319-0.615,0.581
	c-0.266,0.315-0.381,0.726-0.553,1.093c-0.197,0.42-0.572,0.618-0.767,1.006c-0.306,0.61-0.678,1.184-1.085,1.731
	c-1.439,1.935-3.284,3.576-4.193,5.863c-0.26,0.653-0.614,1.127-0.981,1.7c-0.323,0.503-0.638,0.996-1.077,1.409
	c-0.214,0.201-0.446,0.382-0.692,0.542c-0.375-0.313-0.741-0.636-1.098-0.97c-0.534-0.499-1.048-1.02-1.54-1.561
	c-0.246-0.271-0.487-0.547-0.722-0.829c-0.297-0.104-0.582-0.242-0.846-0.413c-0.405-0.263-0.871-1.026-1.313-1.026
	c-0.453-0.026-1.082-0.063-1.339-0.509c-0.123-0.212,0-0.605-0.153-0.736c-0.126-0.108-0.252-0.216-0.379-0.324
	c-0.545-0.468-1.091-0.936-1.637-1.403c-0.973-0.833-1.946-1.667-2.918-2.501c-0.104-0.089-0.032-0.296-0.113-0.444
	c-0.216-0.394-0.576-0.708-0.871-1.041c-0.247-0.279-0.388-0.782-0.635-1.003c-0.376-0.337-0.33-0.602-0.702-0.903
	c-0.349-0.282-0.547-0.684-0.602-1.125c-0.072-0.582-0.133-0.861-0.472-1.358c-0.597-0.873-0.847-1.838-0.976-2.807
	c-0.382-0.199-0.718-0.436-0.738-0.907c-0.028-0.656-0.441-1.273-0.765-1.849c-0.719-1.276-1.573-2.468-2.426-3.656
	c-0.23-0.321-0.272-0.499-0.657-0.579c-0.231-0.048-0.442-0.148-0.656-0.244c-0.126-0.056-1.007-0.253-1.005-0.241
	c-0.103-0.541-0.206-1.083-0.31-1.624c-0.221-1.16-0.643-2.431-0.643-3.615c0-0.496-0.263-0.896-0.466-1.333
	c-0.238-0.513-0.153-0.991-0.289-1.511c-0.092-0.352-0.355-0.599-0.536-0.903c-0.304-0.509-0.152-1.089-0.398-1.636
	c-0.499-1.111-1.119-2.172-1.896-3.111c-0.376-0.456-0.789-0.881-1.235-1.268c-0.225-0.195-0.457-0.38-0.698-0.554
	c-0.342,0.009-0.612-0.149-0.72-0.48c-1.518-0.818-2.403-2.499-4.037-3.155c-0.878-0.353-1.812-0.25-2.659,0.145
	c-0.387,0.18-0.539,0.616-0.91,0.862c-0.495,0.329-0.67,0.023-1.118-0.166c-0.269-0.113-0.564-0.244-0.645-0.555
	c-0.035-0.163-0.032-0.326,0.01-0.489c-0.178-0.13-0.333-0.289-0.471-0.46c-0.505-0.629-0.805-1.456-1.506-1.91
	c-0.608-0.394-1.457-0.467-1.973,0.1c-0.479,0.525-1.03,0.987-1.131,1.642c-0.159,1.041-0.848,1.77-0.999,2.759
	c-0.171,1.128-0.559,2.196-1.002,3.243c-0.388,0.917-0.798,1.826-1.077,2.783c-0.071,0.457,0,0.976,0,1.439
	c0-0.478-1.014-0.66-1.44-0.72c-0.45,0.101-0.697,0.511-1.2,0.479c-0.856,0.764-2.163,0.869-3.24,1.068
	c-1.083,0.201-2.112,0.566-3.132,0.958c-1.219,0.468-1.811-1.425-2.098-2.314c-0.395-1.219-0.823-2.418-1.316-3.603
	c-0.142-0.341-0.282-0.684-0.409-1.031c-0.238-0.657-0.167-0.095-0.517-0.442c-0.343-0.341-1.368-0.436-1.899-0.637
	c-0.292-0.111-0.512-0.236-0.826-0.236c-0.009,0.158-0.123,0.235-0.259,0.281c-0.427,0.143-0.364,0.22-0.526,0.602
	c-0.24,0.566-0.936,1.931-1.747,1.674c-0.43-0.136-0.695-0.765-0.94-1.104c-0.346-0.479-0.666-0.976-0.991-1.468
	c-0.694-1.052-1.429-2.116-2.457-2.872c-0.537-0.395-0.975-0.396-1.563-0.626c-0.533-0.208-1.011-0.513-1.595-0.564
	c-0.114-0.118-0.11-0.659-0.136-0.817c-0.111-0.665-0.044-0.432-0.556-0.726c-0.846-0.485-1.105-1.544-1.384-2.404
	c-0.388-1.193-0.882-2.363-1.311-3.547c-0.854-2.361-2.083-4.593-4.492-5.59c-0.987-0.408-1.748-1.146-2.817-1.459
	c-0.856-0.25-1.558-0.835-2.229-1.408c-1.323-1.13-2.705-2.48-4.591-2.282c-1.76,0.186-2.825,1.688-3.597,3.127
	c-0.422,0.786-0.788,1.601-1.202,2.391c-0.332,0.248-0.458,0.676-0.538,1.062c-0.056,0.273-0.092,0.55-0.135,0.825
	c-0.054,0.341-0.287,0.445-0.287,0.033c-0.32,0.32-0.64,0.64-0.959,0.96c1.417,0-0.479,5.052-0.686,5.818
	c-0.54,1.99-0.793,4.47-2.356,5.975c-0.724,0.697-1.478,0.409-2.397,0.402c-0.307-0.002-0.715,0.011-0.921,0.279
	c-0.104,0.136-0.128,0.313-0.119,0.48c-0.252,0.31-0.463,0.652-0.646,1.007c-0.915,1.779-1.119,3.789-2.233,5.471
	c-0.133,0.458-0.625,0.607-0.864,0.987c-0.259,0.413-1.001,0.244-1.433,0.05c-0.732-0.33-1.081-0.856-1.006-1.603
	c0.061-0.604,0.121-1.209,0.182-1.813c0.033-0.328,0.167-0.329-0.089-0.71c-0.307-0.457-0.325-0.985-0.705-1.358
	c-1.344-1.317-4.145-1.167-5.465,0.152c-0.611,0.611-0.771,0.937-1.657,0.937c-0.755,0.733-1.63,1.328-2.519,1.885
	c-1.509,0.945-3.117,1.795-4.395,3.058c-0.639,0.631-1.174,1.364-1.541,2.186c-0.213,0.478-0.275,1.046-0.52,1.502
	c-0.099,0.184-0.274,0.364-0.31,0.578c0.005-0.028,0.045,0.553,0.161,0.396c-0.617,0.837-1.233,1.673-1.85,2.51
	c-0.375,0.508-0.75,1.017-1.125,1.525c-0.43,0.584-0.546,0.439-1.244,0.777c-1.056,0.512-1.916,1.314-2.735,2.138
	c-0.461,0.007-0.822,0.218-1.208,0.442c-0.577,0.335-1.145,0.278-1.792,0.278c-1.181,0-2.146,0.057-3.169-0.604
	c-0.79-0.509-1.434-1.208-2.213-1.732c-1.231-0.828-2.471-0.784-3.875-0.784c-1.753,0-3.506,0-5.259,0"/>
</svg>
