<?xml version="1.0" encoding="utf-8"?>
<!-- Generator: Adobe Illustrator 14.0.0, SVG Export Plug-In . SVG Version: 6.00 Build 43363)  -->
<!DOCTYPE svg PUBLIC "-//W3C//DTD SVG 1.1//EN" "http://www.w3.org/Graphics/SVG/1.1/DTD/svg11.dtd">
<svg version="1.1" id="Layer_1" xmlns="http://www.w3.org/2000/svg" xmlns:xlink="http://www.w3.org/1999/xlink" x="0px" y="0px"
	 width="471.5px" height="159.5px" viewBox="0 0 471.5 159.5" enable-background="new 0 0 471.5 159.5" xml:space="preserve">
<polyline fill="none" stroke="#000000" stroke-width="0.36" stroke-linejoin="round" stroke-miterlimit="10" points="
	443.631,116.008 442.773,116.088 441.938,116.223 441.108,116.17 440.273,116.088 439.442,116.193 438.607,116.088 436.94,116.088 
	436.11,115.98 435.274,115.876 434.444,115.82 433.609,115.876 432.778,116.036 431.942,115.766 431.112,115.443 430.276,115.523 
	429.445,115.551 428.61,115.656 427.779,117.699 426.944,117.162 425.277,116.465 424.446,116.438 423.611,116.385 422.78,116.488 
	421.945,116.706 421.114,116.68 420.279,116.706 419.448,116.547 418.612,116.357 417.781,116.574 416.946,116.895 416.114,116.95 
	415.28,117.055 414.448,116.922 413.614,116.598 412.782,116.465 411.946,116.409 411.116,116.625 410.28,116.68 408.614,116.034 
	407.783,116.732 406.948,116.115 406.117,116.195 405.281,116.061 404.45,116.22 403.615,116.408 402.784,116.088 401.949,116.031 
	401.118,115.814 400.282,116.248 399.452,116.031 398.616,116.219 397.785,116.245 396.95,116.324 396.119,116.646 395.285,115.812 
	394.453,115.438 392.787,115.005 391.951,114.87 391.121,114.6 390.285,114.383 389.451,114.247 388.619,113.872 387.789,113.766 
	386.953,113.79 386.119,113.766 385.287,113.872 384.453,114.167 383.621,114.193 382.785,114.247 381.955,114.355 381.119,114.436 
	380.287,114.675 378.621,115.268 377.787,115.163 376.955,115.025 376.121,114.706 375.289,114.544 374.455,114.409 
	373.623,114.167 372.789,112.422 371.957,111.318 371.123,111.291 370.291,111.268 369.455,111.507 368.625,111.588 
	367.789,111.158 366.959,109.572 366.123,109.491 365.293,110.002 364.457,110.029 363.627,109.65 362.791,110.325 361.959,110.754 
	361.1,110.811 360.266,110.57 359.434,110.92 358.6,108.663 357.768,108.206 356.932,109.064 356.102,108.824 355.266,108.095 
	354.436,108.039 353.6,107.664 352.771,107.369 351.934,109.386 351.104,108.121 350.268,108.473 349.438,107.718 348.604,106.214 
	347.773,107.316 346.938,109.2 346.107,107.803 345.271,108.396 344.439,107.293 343.605,107.831 342.773,106.299 341.939,104.068 
	341.107,105.198 340.271,106.271 339.443,105.79 338.605,106.328 337.775,105.816 336.939,104.045 336.109,100.576 335.273,104.605 
	334.443,104.766 333.607,104.766 332.777,104.605 331.941,103.291 331.111,106.006 330.275,103.05 329.445,103.562 328.609,104.154 
	327.779,104.611 326.943,103.993 326.113,106.654 325.277,105.5 324.445,106.654 323.611,107.432 322.777,107.297 321.945,109.338 
	321.111,110.037 320.277,109.148 319.445,110.037 318.611,110.764 317.779,111.355 316.945,111.626 316.113,111.975 
	315.279,111.951 314.447,111.846 313.613,112.812 312.781,112.839 311.947,112.998 311.113,112.68 310.281,112.703 309.447,112.622 
	308.613,112.783 307.781,113.512 306.947,112.085 306.115,112.385 305.281,112.195 304.449,112.223 303.615,112.165 
	302.781,112.165 301.949,112.354 301.115,112.568 300.283,112.677 299.449,112.459 298.617,112.677 297.783,112.595 
	296.951,112.113 296.117,112.301 295.283,112.275 294.451,112.625 293.617,112.57 292.783,112.73 291.951,112.73 291.117,112.838 
	290.285,112.758 289.451,112.811 288.619,112.786 287.785,112.867 286.951,113.055 286.119,113.029 285.285,113.109 
	284.453,113.163 283.619,113.059 281.953,112.738 281.119,112.711 280.285,112.816 279.426,112.791 278.594,112.711 277.76,112.576 
	276.926,112.12 276.094,112.391 275.26,112.365 274.428,112.311 273.594,112.311 272.76,112.253 271.928,111.877 271.094,111.904 
	270.26,111.662 269.428,111.447 268.596,111.045 267.762,111.314 266.928,110.777 266.096,110.32 265.262,110.188 264.43,110.482 
	263.596,110.4 262.764,110.051 261.93,111.662 261.096,109.27 260.264,109.457 259.43,109.296 258.596,109.753 257.764,109.354 
	256.93,109.514 256.098,109.354 255.264,109.296 254.432,109.218 253.598,109.162 252.766,109.186 251.932,109.323 251.1,109.7 
	250.266,109.482 249.432,109.404 248.6,109.268 247.766,109.105 246.932,109.377 246.1,109.105 245.266,108.973 244.434,108.811 
	243.6,108.596 242.768,107.01 241.934,106.904 240.268,107.01 239.434,106.635 238.602,106.635 237.768,105.826 236.938,105.745 
	236.105,105.529 235.271,105.342 234.438,105.312 233.605,105.342 232.772,106.846 231.939,106.871 231.106,106.871 
	230.272,106.736 229.439,106.898 227.773,107.167 226.94,106.791 226.107,107.303 225.273,106.822 224.44,106.551 223.607,106.604 
	222.774,106.711 221.941,106.471 221.108,106.471 220.274,106.659 219.441,106.258 218.608,104.217 217.775,103.246 
	216.942,102.895 216.109,103.136 215.276,108.993 214.442,104.557 213.609,104.531 212.776,104.451 211.943,103.297 211.11,102.841 
	210.276,102.195 209.444,102.195 208.61,102.3 207.777,102.57 206.944,104.509 206.111,105.611 205.278,105.746 204.444,105.666 
	203.612,105.691 202.778,105.611 201.945,105.314 201.112,105.289 200.279,104.939 199.446,104.777 198.612,104.536 
	197.752,104.135 196.919,104.079 196.086,104.592 195.253,99.594 194.42,98.623 194.42,98.611 193.587,99.662 192.754,99.366 
	191.921,98.854 191.087,98.584 190.254,98.422 189.421,97.695 188.588,96.725 187.755,97.021 186.923,96.622 186.088,97.021 
	185.256,101.244 184.423,100.973 183.59,99.738 182.757,100.57 181.923,101.027 181.09,103.07 180.257,101.297 179.424,100.439 
	178.591,101.328 177.758,101.111 176.925,102.107 176.091,100.896 175.258,102.939 174.425,101.786 173.592,100.389 
	171.926,100.495 171.093,100.79 170.259,100.631 169.426,101.111 168.593,101.383 167.76,101.141 166.927,101.705 166.094,100.684 
	165.261,100.066 164.427,99.907 163.594,100.74 162.761,99.907 161.928,98.672 161.095,94.693 160.261,97.595 159.428,106.197 
	158.595,102.086 157.762,101.71 156.929,101.197 156.096,105.176 155.263,94.773 154.429,92.893 153.596,89.561 152.763,91.498 
	151.93,92.061 151.097,92.301 150.264,93.322 149.43,93.834 148.597,94.561 147.764,92.223 146.931,91.391 146.098,91.254 
	145.265,90.02 144.431,95.018 143.599,95.501 142.765,97.061 141.932,98.244 141.099,97.466 140.266,97.225 138.599,99.322 
	137.766,99.859 136.933,99.082 136.1,100.234 135.267,98.92 134.434,98.307 133.6,99.082 132.767,97.768 131.934,97.445 
	131.101,93.816 130.268,95.914 129.434,95.32 128.601,96.963 127.768,98.172 126.935,98.413 126.101,99.327 125.268,99.462 
	124.435,99.945 123.602,100.025 122.769,99.704 121.936,101.424 121.103,99.141 119.436,101.504 118.603,102.178 117.77,101.962 
	116.937,102.363 116.077,102.98 115.244,104.809 114.411,105.209 113.578,105.104 112.744,104.514 111.912,104.08 111.078,104.698 
	110.245,104.777 109.412,104.833 108.579,105.643 107.746,105.775 106.912,105.616 106.079,104.783 105.246,104.646 
	104.413,104.622 103.58,104.783 102.746,105.238 101.913,105.59 101.08,105.616 100.247,105.59 99.414,105.294 98.58,105.375 
	97.748,105.536 96.914,105.48 96.081,106.018 95.248,106.395 94.415,106.609 93.581,106.259 92.748,105.828 91.915,103.167 
	91.082,102.952 90.249,103.006 89.416,103.357 88.583,103.223 86.916,102.9 86.083,102.523 85.25,102.499 84.417,102.283 
	83.583,102.391 82.75,102.605 81.917,104.407 81.084,104.971 80.25,104.566 79.417,103.734 78.584,103.95 77.751,104.541 
	76.918,104.326 76.085,103.143 75.252,102.686 74.419,102.443 71.086,102.318 70.253,102.048 69.42,102.693 68.586,102.561 
	67.753,102.775 66.92,103.959 66.087,104.416 65.254,104.255 64.421,104.443 63.588,106.781 62.754,106.861 61.922,107.236 
	61.088,106.885 60.255,106.727 59.422,106.59 58.589,105.999 57.756,104.843 56.922,104.252 56.089,103.523 55.256,100.648 
	54.423,99.977 53.59,98.791 52.756,97.07 51.923,96.588 51.09,95.059 50.257,93.713 49.424,93.312 48.591,92.502 47.758,91.35 
	46.924,90.704 46.091,88.796 45.258,90.943 44.425,89.357 43.591,88.9 42.759,89.52 41.925,88.335 41.093,89.033 40.259,87.368 
	39.426,87.395 38.593,85.082 37.76,85.484 36.926,86.236 36.093,85.781 35.26,86.909 34.427,84.168 74.419,121.85 75.252,119.779 
	76.085,120.535 76.918,121.607 77.751,120.346 78.584,110.186 79.417,113.518 80.25,113.789 81.084,119.38 81.917,121.641 
	82.75,121.076 83.583,118.738 84.417,101.296 85.25,89.417 86.083,73.587 86.916,102.775 87.749,107.936 88.583,113.01 
	89.416,120.109 90.249,122.552 91.082,122.447 91.915,121.156 92.748,120.027 93.581,118.523 94.415,120.404 95.248,119.219 
	96.081,119.141 96.914,120.566 97.748,120.754 98.58,120.512 99.414,121.266 100.247,122.178 101.08,122.043 101.913,122.15 
	102.746,123.145 103.58,123.008 104.413,122.254 105.246,121.479 106.079,121.717 106.912,120.564 107.746,120.996 108.579,121.236 
	109.412,122.525 110.245,122.174 111.078,122.393 111.912,123.359 112.744,122.85 113.578,121.559 114.411,121.074 115.244,119.705 
	116.077,120.352 116.937,120.352 117.77,121.48 118.603,119.033 119.436,117.234 120.27,119.219 121.103,119.245 121.936,121.047 
	122.769,120.832 123.602,121.02 124.435,119.593 125.268,121.02 126.101,119.458 126.935,118.062 127.768,115.506 128.601,116.1 
	129.434,118.247 130.268,120.828 131.101,120.666 131.934,121.557 132.767,120.695 133.6,121.288 134.434,119.622 136.1,119.46 
	136.933,118.572 137.766,117.604 138.599,117.122 139.433,117.041 140.266,118.332 141.099,119.596 141.932,119.812 
	142.765,119.893 143.599,115.807 144.431,113.789 145.265,118.307 146.098,118.441 146.931,116.8 147.764,116.721 148.597,115.214 
	149.43,117.794 150.264,116.907 151.097,118.52 151.93,120.266 152.763,117.71 153.596,119.135 154.429,119.029 155.263,118.759 
	156.096,116.1 156.929,100.727 157.762,122.171 158.595,122.732 159.428,122.518 161.095,120.958 161.928,122.273 162.761,120.984 
	163.594,121.334 164.427,120.23 165.261,120.286 166.094,118.973 166.927,117.545 167.76,119.884 168.593,121.309 169.426,121.9 
	170.259,121.499 171.093,120.938 171.926,121.395 172.759,121.18 173.592,120.828 174.425,119.432 175.258,119.62 176.091,118.867 
	176.925,120.561 177.758,119.727 178.591,120.021 179.424,120.91 180.257,121.311 181.09,121.123 181.923,121.311 182.757,122.249 
	183.59,121.793 184.423,119.807 185.256,117.869 186.088,117.869 186.923,116.441 187.755,118.941 188.588,116.604 189.421,118.486 
	190.254,118.566 191.087,120.016 191.921,117.999 192.754,120.77 193.587,121.873 194.42,121.658 194.42,121.66 195.253,120.747 
	196.086,120.102 196.919,117.816 197.752,118.837 198.612,119.75 199.446,120.503 200.279,120.936 201.112,121.176 201.945,120.477 
	202.778,120.234 203.612,120.131 204.444,120.076 205.278,120.559 206.111,120.127 206.944,119.645 207.777,119.78 208.61,118.787 
	209.444,120.05 210.276,120.482 211.11,120.803 211.943,121.154 212.776,121.559 213.609,120.454 214.442,116.1 215.276,116.581 
	216.109,116.796 216.942,117.414 217.775,117.977 218.608,117.465 219.441,116.094 220.274,116.282 221.108,116.201 
	221.941,116.714 222.774,116.85 223.607,117.037 224.44,120.1 225.273,119.748 226.107,119.693 226.94,119.506 227.773,120.42 
	228.606,120.523 229.439,120.766 230.272,120.686 231.106,120.766 231.939,119.475 232.772,119.53 233.605,118.913 234.438,119.746 
	235.271,119.586 236.105,119.104 236.938,118.672 237.771,118.943 238.604,119.293 239.438,120.396 240.27,120.046 241.104,120.264 
	241.938,120.343 242.77,120.207 243.604,120.639 244.436,120.45 245.27,120.395 246.102,120.043 246.936,119.989 247.77,119.852 
	248.602,120.285 249.436,120.421 250.268,121.391 251.102,121.146 251.934,119.725 252.768,119.805 253.602,116.415 
	254.434,117.568 255.268,118.428 256.102,119.771 256.934,119.852 257.768,119.637 258.6,118.805 259.434,119.262 260.266,119.503 
	261.1,119.823 261.932,119.555 262.766,117.913 263.598,117.857 264.432,119.684 265.266,118.771 266.098,118.689 266.932,119.307 
	267.764,119.578 268.598,119.633 269.432,119.016 270.264,118.104 271.098,117.807 271.93,117.055 272.764,115.924 273.596,114.956 
	274.43,114.9 275.264,116.406 276.096,117.936 276.93,119.064 277.762,119.281 278.596,118.719 279.43,119.657 280.289,118.473 
	281.121,118.232 281.955,115.678 282.789,114.066 283.621,115.893 284.455,117.182 285.289,117.129 286.121,117.748 
	286.953,118.096 287.787,118.58 288.621,119.037 289.453,119.547 290.287,120.004 291.121,118.553 291.953,118.795 292.787,117.611 
	293.621,117.129 294.453,117.37 295.287,117.639 296.119,116.135 296.953,115.758 297.787,115.488 298.619,116.295 299.451,115.596 
	300.285,114.09 301.119,115.568 301.951,115.354 302.785,115.757 303.619,117.906 304.451,119.059 305.285,118.684 306.117,117.609 
	306.951,118.684 307.783,118.658 308.617,120.675 309.451,121.615 310.283,120.541 311.117,118.955 311.949,118.898 
	312.783,118.898 313.615,117.207 314.449,120.406 315.281,121.344 316.115,121.264 317.781,122.285 318.615,123.17 319.449,123.494 
	320.281,123.17 321.115,122.176 321.947,122.311 322.781,121.639 323.613,120.807 324.447,120.08 325.281,119.973 326.115,120.566 
	326.945,121.047 327.781,120.941 328.613,122.071 329.447,121.775 330.279,122.047 331.113,121.992 331.945,121.721 
	332.781,121.372 333.611,120.699 334.447,120.161 335.277,119.329 336.113,119.113 336.943,120.51 337.779,120.697 338.609,119.783 
	339.445,118.924 340.275,118.277 341.111,118.09 341.941,118.766 342.777,119.572 343.607,120.676 344.443,121.857 345.273,121.777 
	346.109,121.105 346.941,120.756 347.775,120.756 348.606,121.025 349.441,119.655 350.272,119.734 351.938,118.928 
	352.774,118.201 353.604,118.417 354.44,118.497 355.271,118.309 356.106,118.446 356.937,119.174 357.772,119.039 358.604,119.254 
	359.438,119.549 360.271,119.576 361.104,119.846 361.961,119.254 362.793,119.846 363.629,119.872 364.461,119.336 
	365.295,119.391 366.127,119.982 366.961,119.391 367.793,119.982 368.627,120.277 369.459,120.412 370.293,120.253 
	371.125,119.257 371.959,119.717 372.791,119.635 373.625,119.607 374.457,119.448 375.293,119.071 376.123,119.448 
	376.959,119.555 377.791,119.312 378.625,119.905 379.457,119.85 380.291,119.905 381.123,119.961 381.957,120.816 382.789,120.898 
	383.623,120.307 384.455,120.709 385.289,120.709 386.121,120.467 386.955,120.493 387.791,120.573 388.623,120.6 389.453,120.573 
	390.289,120.467 391.123,120.816 391.955,120.898 392.791,120.684 393.621,120.253 394.457,120.764 395.287,120.602 
	396.123,120.602 396.953,120.658 397.789,120.497 398.619,120.928 399.456,121.064 400.285,120.447 401.121,120.797 
	401.952,120.557 402.787,120.609 403.618,120.451 404.453,120.18 405.284,121.039 406.12,120.311 406.951,120.23 407.786,120.205 
	408.617,120.607 409.452,120.366 410.283,120.822 411.119,120.527 411.949,120.125 412.785,120.262 413.617,119.696 
	414.451,120.209 415.283,120.29 416.117,120.881 416.949,120.857 417.784,120.615 418.615,120.775 419.451,120.75 420.282,120.807 
	421.117,120.7 421.948,120.539 422.783,120.859 423.614,120.403 424.449,121.021 425.28,117.583 426.116,116.237 426.947,115.164 
	427.782,116.348 428.613,115.732 429.448,116.994 430.279,117.236 431.115,118.389 431.945,117.583 432.781,117.689 
	433.612,117.583 434.447,118.416 435.278,118.928 436.113,119.064 436.944,119.038 437.78,119.389 438.611,119.068 439.446,119.012 
	440.277,119.2 441.112,118.77 441.94,118.903 442.775,119.2 443.635,119.225 443.639,127.652 34.427,127.652 34.427,23.268 "/>
</svg>
