<?xml version="1.0" encoding="utf-8"?>
<!-- Generator: Adobe Illustrator 14.0.0, SVG Export Plug-In . SVG Version: 6.00 Build 43363)  -->
<!DOCTYPE svg PUBLIC "-//W3C//DTD SVG 1.1//EN" "http://www.w3.org/Graphics/SVG/1.1/DTD/svg11.dtd">
<svg version="1.1" id="Layer_1" xmlns="http://www.w3.org/2000/svg" xmlns:xlink="http://www.w3.org/1999/xlink" x="0px" y="0px"
	 width="609.449px" height="425px" viewBox="0 0 609.449 425" enable-background="new 0 0 609.449 425" xml:space="preserve">
<path fill-rule="evenodd" clip-rule="evenodd" fill="none" stroke="#EF3E2A" d="M100.058,350.142l0.24-304.217l411.7,122.078H99.747
	l16.543,7.238c-0.849,0.129-1.236-0.204-1.439-0.72c1.355-1.538,3.399-5.817,5.999-3.119c-0.036,0.596,0.124,0.996,0.48,1.2
	c0.681,1.879,0.791,4.328,2.16,5.518c0.768-2.031,1.449-4.149,1.68-6.718c0.241-0.319,0.227-0.893,0.72-0.959c0-0.24,0-0.48,0-0.72
	c0.519-0.201,0.818-0.621,1.68-0.48c1.54,0.779,1.287,3.352,2.16,4.798c-0.068,0.388,0.227,0.413,0.24,0.72
	c0.082,2.158,0.921,3.558,1.2,5.518c0.121,1.479,0.051,3.148,1.2,3.599c1.046,0.326,0.868-0.572,1.44-0.72
	c1.033,0.247,1.707,0.853,2.399,1.44c0.187,0.533,0.139,1.301,0.72,1.439c0.366,1.953,1.149,3.489,1.679,5.278
	c-0.262,1.062,0.407,1.193,0.48,1.919c1.655,4.343,1.39,10.606,3.359,14.635c0,0.08,0,0.16,0,0.24c-0.08,0-0.16,0-0.24,0
	c-0.116,0.916,0.068,1.531,0.48,1.919c-0.502,0.911-0.052,2.925,0.72,3.359c0.407-0.799,1.306-2.364,0.72-3.359
	c0.247-0.553,0.826-0.773,0.72-1.679c0.273-0.526,0.619-0.98,0.48-1.92c0.637-1.042,0.997-2.362,1.2-3.838
	c1.498-3.061,1.167-7.95,3.839-9.836c0.24,0,0.48,0,0.72,0c1.954,2.925,1.855,7.902,3.12,11.516c0.02,0.38-0.116,0.915,0.24,0.96
	c-0.174,0.733,0.414,0.706,0.24,1.439c0.16,0,0.32,0,0.479,0c-0.67,0.504-0.349,1.229,0,1.919c0.79-0.338,1.846-1.664,1.44-2.398
	c0.821-0.539,1.781-0.938,2.879-1.2c0.181,1.019,1.33,1.069,2.16,1.439c0.125-0.354,0.355-0.604,0.48-0.959
	c0.288-0.315,0.093-0.378,0-0.72c0.182-0.378,0.761-0.359,0.72-0.96c-0.046-0.194-0.241-0.239-0.24-0.479c0.16,0,0.32,0,0.48,0
	c0.127-0.193,0.25-0.39,0.24-0.72c0.08,0,0.16,0,0.24,0c0.322-1.917,1.34-3.138,1.44-5.278c0.371-0.349,0.503-0.936,0.479-1.679
	c0.288-0.661,0.521-1.002,0.24-1.68c1.917-4,1.873-9.963,3.599-14.155c0.114-0.753-0.299-0.98-0.72-1.199c0-0.08,0-0.16,0-0.24
	c2.159-1.84,2.363-5.635,3.359-8.637c0.421-0.218,0.439-0.841,0.72-1.2l0.24-0.959c0.45-1.07,1.125-1.915,1.44-3.119
	c1.117-1.195,1.878-3.78,4.319-2.879c0.241,0.319,0.227,0.893,0.72,0.959c0.35,1.25,0.806,2.393,1.439,3.359
	c-0.111,0.751,0.208,1.071,0.96,0.96c0.312-2.248,0.917-4.201,1.2-6.478c0.218-0.19,1.705-0.294,1.44,0.72l2.879-2.399
	c0,0.08,0,0.16,0,0.24c1.59,0.754,2.592-0.524,4.079,0c0.08,0,0.16,0,0.24,0c0.557,0.077,0.921-0.039,1.2-0.24c0-0.08,0-0.16,0-0.24
	s0-0.16,0-0.24c-0.818-0.271-0.57-0.284-0.48-1.2c-0.366-3.432,1.367-8.851,3.359-11.516c0.416-0.384,0.703-0.896,0.96-1.439
	c0.8-1.599,1.891-2.908,3.119-4.079l1.44-2.399c0-0.24,0-0.479,0-0.72c1.469-0.429,1.101,0.979,2.16,0.96c0,0.08,0,0.16,0,0.24
	c0.477,0.003,0.305,0.655,0.959,0.48c2.425-2.088,1.408-10.005,4.559-10.077c3.001-0.068,2.324,7.085,4.08,9.117
	c1.045-0.394,1.451-1.428,1.679-2.639c0.473-0.407,0.644-1.116,0.72-1.919c1.037-1.842,1.36-4.398,1.68-6.958
	c0.333-1.747,0.748-3.411,0.72-5.518c0.519-0.441,0.505-1.415,0.48-2.399c0.2-1.4,0.774-2.425,0.72-4.079
	c0.356-0.204,0.516-0.604,0.48-1.2c0.576-0.223,0.635-0.964,1.68-0.72c2.637,4.481,2.09,12.145,4.079,17.274
	c0.054,0.186,0.006,0.473,0.24,0.479c0.295,1.225,1.52,1.52,2.879,1.68c0.411,0.389,0.874,0.726,1.68,0.72
	c0.842,0.597,1.785,1.095,2.64,1.679c1.159,2.041,2.042,4.356,3.119,6.478c0.058,0.982,0.729,1.351,0.72,2.399l-0.24,2.159
	c0.349-0.131,1.24,0.281,1.2-0.24c1.964,1.236,2.329,4.069,3.839,5.758c0.198,0.678-0.338,0.621-0.24,1.199
	c0.387-0.067,0.413,0.227,0.72,0.24c-0.243,0.886,0.434,2.704,0.96,3.599l-0.24,5.038c0.514-0.518,1.341-0.123,1.68,0.24
	c0.498,1.741,1.471,3.008,3.12,3.599c0.166,0.474,0.64,0.64,1.2,0.72c0.203,0.516,0.591,0.849,1.439,0.72
	c-0.467,1.11,1.614,1.524,2.16,2.399c0.263,0.856,0.823,1.416,1.68,1.679c0.601-0.041,0.751,0.369,0.96,0.72l1.2,0.48
	c-1.424-0.139,0.01,0.646,0,1.2c0.643,1.596,1.307,3.171,1.919,4.798c0.16,0,0.32,0,0.48,0l3.669,7.182
	c2.214,0.037,3.675,0.983,4.489,3.135c0.233,0.006,0.187,0.293,0.24,0.479c1.249,2.67,1.754,6.083,2.639,9.117
	c0.322,0.158,0.447,0.513,0.48,0.959c0.569,0.438,1.388,0.626,2.16,0.24c-0.011-0.411,0.178-0.622,0.48-0.72
	c-0.012-0.732,0.218-1.222,0.72-1.44c-0.103-0.982,0.222-1.537,0.48-2.159c0.241,0,0.286,0.194,0.48,0.24c0-0.08,0-0.16,0-0.24
	c-1.14-1.131,0.347-2.954,0.24-4.558l0.48-2.16c1.295-5.102,2.303-10.493,3.359-15.834c0.24,0,0.479,0,0.72,0l0.48-4.079
	c-0.344-1.787,0.631-4.325,0.959-6.238l-0.479-3.839c1.395-0.285,1.335-2.023,1.919-3.119c-0.018-2.259,0.715-5.842,1.68-7.917
	c0-0.16,0-0.32,0-0.48c0.112-1.247,2.376-0.343,3.119-0.959c3.255-5.703,2.535-15.379,5.519-21.353
	c-0.039-0.279,0.053-0.427,0.24-0.48c0.315-1.924,1.581-2.898,2.64-4.079c4.348,3.257,5.253-4.082,5.999-7.438
	c1.977-8.891,4.843-20.879,7.919-26.871c-0.037-0.597,0.377-0.743,0.479-1.2c0.295,0.105,0.493,0.307,0.48,0.72
	c1.528,3.269,2.218,7.379,3.119,11.276c0.524,0.035,0.515,0.604,0.479,1.199c0.66,1.18,1.257,2.423,1.439,4.079
	c0.606,0.753,0.992,1.728,1.2,2.879c0.72,0.719,1.025,1.853,1.439,2.879c0.214,0.106,0.43,0.21,0.48,0.48l2.159,0.959
	c-0.531,0.664-0.392,1.285-0.24,2.159c0.302,0.098,0.491,0.31,0.48,0.72c0.302,0.099,0.49,0.31,0.479,0.72
	c0.58,0.299,0.776,0.983,0.96,1.68c0.834,0.845,1.197,2.161,1.68,3.359c0.033,0.447,0.158,0.802,0.479,0.959
	c1.201,1.599,2.199,3.4,3.12,5.278c0.474,0.166,0.64,0.64,0.72,1.2c2.894,3.344,2.821,9.655,7.678,11.036
	c1.208,0.152,1.734,0.985,2.16,1.919c0.997,0.683,1.553,1.807,1.92,3.119c1.015,2.919,2.818,9.213,3.036,13.954l2.604,2.118
	c0.414,0.333,1.068,0.427,1.559,0.002c0-0.24,0-0.48,0-0.72c0.319,0,0.64,0,0.96,0c0.89-0.463,1.83-0.044,2.159,0.72
	c0.45,0.458-0.143,0.434,0,1.199l1.439,1.919c-0.198,0.678,0.339,0.622,0.24,1.2c-0.459,0.101-1.033,0.087-0.96,0.72
	c-0.098,0.578,0.438,0.521,0.24,1.2c0.344,0.296,0.454,0.825,0.479,1.439c0.67,0.53,0.853,1.547,1.2,2.399
	c0.187,0.053,0.279,0.201,0.24,0.48l-0.407,1.655c1.213-0.029,2.301,0.067,2.087,1.464c0.723,0.557,0.875,1.684,1.199,2.639
	c-0.261,1.051,1.186,2.282,0.72,4.318c0.076,0.324,0.342,0.458,0.24,0.959c1.173,4.157,1.416,8.646,2.159,13.196
	c0.726,4.442,2.638,9.982,1.92,12.236l3.359,2.159c-1.367,0.284,0.732,5.567,1.2,6.958c-0.031,0.43,0.293,0.506,0.239,0.959
	c1.177,8.58,4.659,14.855,9.838,19.434c0.178,0.702,0.581,1.179,0.96,1.68c1.864,6.693,2.471,14.644,3.84,21.832
	c1.893-0.986,1.396-4.362,3.839-4.798c0.08,0,0.16,0,0.24,0c-0.115,0.834-0.045,1.484,0.959,1.199
	c1.373,4.631,1.468,12.604,5.52,15.354c0.218,0.502,0.708,0.731,1.439,0.72c3.322,2.108,4.595-2.75,7.918-1.439
	c1.014,0.986,1.533,2.466,2.4,3.599c0.271,1.088,0.556,2.163,1.199,2.88c-0.021,0.34-0.04,0.679,0.24,0.72
	c2.14,7.217,3.142,15.571,6.238,21.832c-0.039,0.279,0.053,0.427,0.24,0.479c0.1,1.021,0.42,1.82,0.96,2.399
	c-0.039,0.279,0.053,0.427,0.24,0.48c0.668,2.45,1.494,4.743,2.639,6.717c-0.012,0.732,0.219,1.222,0.72,1.44
	c-0.177,1.057,0.777,0.982,0.96,1.679c4.128-1.206,5.072,3.189,7.679,1.92c0.811,0.091,1.023-0.416,1.439-0.72
	c0.977-0.51,2.211,0.562,2.16-0.72c0.079,0,0.159,0,0.239,0c0,0.239,0,0.479,0,0.72c-0.111,0.512,0.343,0.457,0.72,0.479
	c-0.067,0.628,0.088,1.032,0.721,0.96c0.045,0.194,0.24,0.239,0.239,0.479c-0.213-0.147-0.429-0.29-0.479,0l7.679,0.24
	c0-0.08,0-0.16,0-0.24c4.993-6.245,5.925-16.985,7.438-27.351c0.483-3.314,0.756-7.374,1.919-9.597
	c1.393-2.659,4.78-3.214,5.279-6.238c0.474-0.166,0.64-0.64,0.72-1.199s0.246-1.033,0.72-1.199c1.303-1.417,2.096-3.343,2.88-5.278
	c0.187-0.053,0.278-0.201,0.239-0.48c0.845-0.675,1.157-1.882,2.16-2.398c1.434-0.074,1.824,0.895,3.119,0.959
	c1.772-2.866,2.318-6.959,3.359-10.556c0.424-1.176,1.22-1.979,1.199-3.6c0.184-0.367,0.285-0.918,0.724-0.992
	c0.483-0.083,0.523-0.495,0.477-0.927c0.08,0,0.16,0,0.24,0c0.817-3.813,6.984-5.261,8.638-1.199
	c0.045,1.345,1.745,2.882,1.68,0.479c1.405-1.463,1.488-14.001,5.279-10.557c-0.067,0.547,0.058,0.902,0.479,0.96
	c0.781,2.818,1.175,6.023,2.64,8.157c1.452-1.588,1.779-4.299,5.519-3.599c0,0.08,0,0.16,0,0.239c0.912-0.107,1.708,0.622,2.4,0
	c2.834-0.444,3.951-2.605,5.519-4.318c1.102-0.062,1.159-0.255,2.159,0c0.921,1.479,1.294,3.506,2.16,5.039
	c-0.015,0.894,0.241,1.517,0.479,2.159c0.523,0.043,0.764-0.196,0.72-0.72c0.776-1.365,1.158-4.771,1.68-7.198
	c0.466-2.168,0.694-5.086,2.399-5.998"/>
</svg>
